<svg width="10" height="10" viewBox="0 0 10 10" fill="none" xmlns="http://www.w3.org/2000/svg">
<path d="M1.429 9.64645C1.62426 9.84171 1.94084 9.84171 2.13611 9.64645L6.618 5.16455C6.93298 4.84957 7.47155 5.07265 7.47155 5.51811V8.34956C7.47155 8.6257 7.69541 8.84956 7.97155 8.84956H9.5C9.77614 8.84956 10 8.6257 10 8.34956V0.500001C10 0.223858 9.77614 0 9.5 0H1.65044C1.3743 0 1.15044 0.223858 1.15044 0.5V2.02844C1.15044 2.30459 1.3743 2.52845 1.65044 2.52845H4.48189C4.92735 2.52845 5.15043 3.06702 4.83545 3.382L0.353553 7.86389C0.158291 8.05915 0.158291 8.37574 0.353553 8.571L1.429 9.64645Z" fill="#00AAEB"/>
</svg>
