<svg width="116" height="38" viewBox="0 0 116 38" fill="none" xmlns="http://www.w3.org/2000/svg">
<path d="M113.486 2.41162V35.5885H2.32103V2.41162H113.486ZM115.776 0.14624H0.03125V37.8539H115.702V0.14624H115.776ZM63.0369 10.1578H60.9687H60.8949H58.9744H58.3097L51.9574 27.8424H55.2812L56.6108 24.0424H65.3267L66.6563 27.8424H69.9801L63.554 10.1578H63.0369ZM57.571 21.4116L58.9006 17.6847C59.5653 15.7116 60.3778 13.0809 60.7472 11.2539H61.1903C61.5596 13.0809 62.3721 15.7116 63.0369 17.6847L64.3665 21.4116H57.571ZM23.0767 9.7924C17.4631 9.7924 13.4744 13.5193 13.4744 19.0001C13.4744 24.4809 17.4631 28.2078 23.1506 28.2078C27.0653 28.2078 30.2415 26.3809 31.8665 23.0193L29.2074 21.9232C28.0994 24.2616 25.9574 25.5039 23.2244 25.5039C19.3097 25.5039 16.6506 22.9462 16.6506 18.927C16.6506 14.9078 19.3097 12.3501 23.2244 12.3501C25.9574 12.3501 28.0994 13.5924 29.2074 15.9309L31.8665 14.8347C30.1676 11.6193 26.9915 9.7924 23.0767 9.7924ZM49.7415 10.1578H46.7131V17.1001H37.554V10.1578H34.5256V27.8424H37.554V19.8039H46.7131V27.9155H49.7415V10.1578ZM97.9744 10.1578V26.7462H97.4574C97.0881 24.9193 96.2756 22.2885 95.4631 20.3155L91.4006 10.1578H90.8835H88.9631H88.6676H86.7471H85.5653V27.8424H88.5937V11.327H89.1108C89.4801 13.1539 90.2926 15.7847 91.1051 17.7578L95.1676 27.9155H96.1278H97.6051H97.9006H100.19H100.929V10.1578H97.9744ZM75.5199 10.1578H72.0483V12.7885H75.5199V25.1385H72.0483V27.7693H82.0199V25.1385H78.5483V12.8616H82.0199V10.2309H78.5483H75.5199V10.1578Z" fill="white"/>
</svg>
