<svg width="99" height="136" viewBox="0 0 99 136" fill="none" xmlns="http://www.w3.org/2000/svg">
<g style="mix-blend-mode:color-dodge">
<path d="M1.82166 34.3299C1.56662 34.0896 1.36249 33.8005 1.22139 33.4798C1.08028 33.1592 1.00508 32.8135 1.00025 32.4633C0.995415 32.113 1.06105 31.7653 1.19325 31.4409C1.32545 31.1165 1.52153 30.8219 1.76984 30.5747C2.01815 30.3274 2.31363 30.1326 2.63874 30.0017C2.96385 29.8709 3.31196 29.8066 3.66239 29.8127C4.01283 29.8189 4.35846 29.8954 4.67876 30.0376C4.99905 30.1799 5.28748 30.385 5.52692 30.6408C5.99124 31.1369 6.24418 31.7941 6.23221 32.4733C6.22024 33.1524 5.94429 33.8002 5.46278 34.2796C4.98127 34.759 4.33199 35.0324 3.65239 35.0417C2.97279 35.0511 2.31622 34.7958 1.82166 34.3299V34.3299Z" fill="#9E9E9E"/>
<path d="M1.82544 48.7757C1.45828 48.4105 1.20786 47.9446 1.10588 47.437C1.00391 46.9294 1.05499 46.4031 1.25264 45.9245C1.45029 45.446 1.78563 45.0368 2.21615 44.7489C2.64667 44.4611 3.153 44.3074 3.671 44.3074C4.18899 44.3074 4.69533 44.4611 5.12585 44.7489C5.55637 45.0368 5.8917 45.446 6.08935 45.9245C6.287 46.4031 6.33808 46.9294 6.23611 47.437C6.13414 47.9446 5.88371 48.4105 5.51655 48.7757C5.02627 49.2634 4.36271 49.5371 3.671 49.5371C2.97929 49.5371 2.31572 49.2634 1.82544 48.7757V48.7757Z" stroke="#9E9E9E" stroke-width="0.5" stroke-miterlimit="10"/>
<path d="M1.82544 63.2347C1.45828 62.8695 1.20786 62.4036 1.10588 61.8961C1.00391 61.3885 1.05499 60.862 1.25264 60.3835C1.45029 59.905 1.78563 59.4959 2.21615 59.208C2.64667 58.9201 3.153 58.7664 3.671 58.7664C4.18899 58.7664 4.69533 58.9201 5.12585 59.208C5.55637 59.4959 5.8917 59.905 6.08935 60.3835C6.287 60.862 6.33808 61.3885 6.23611 61.8961C6.13414 62.4036 5.88371 62.8695 5.51655 63.2347C5.02627 63.7223 4.36271 63.9961 3.671 63.9961C2.97929 63.9961 2.31572 63.7223 1.82544 63.2347V63.2347Z" fill="#9E9E9E"/>
<path d="M1.82544 77.6945C1.45828 77.3293 1.20786 76.8634 1.10588 76.3558C1.00391 75.8483 1.05499 75.3219 1.25264 74.8434C1.45029 74.3649 1.78563 73.9557 2.21615 73.6678C2.64667 73.3799 3.153 73.2263 3.671 73.2263C4.18899 73.2263 4.69533 73.3799 5.12585 73.6678C5.55637 73.9557 5.8917 74.3649 6.08935 74.8434C6.287 75.3219 6.33808 75.8483 6.23611 76.3558C6.13414 76.8634 5.88371 77.3293 5.51655 77.6945C5.02447 78.1787 4.36158 78.4502 3.671 78.4502C2.98041 78.4502 2.31752 78.1787 1.82544 77.6945Z" fill="#9E9E9E"/>
<path d="M1.82544 92.1536C1.45828 91.7884 1.20786 91.3224 1.10588 90.8148C1.00391 90.3073 1.05499 89.7809 1.25264 89.3024C1.45029 88.8238 1.78563 88.4147 2.21615 88.1268C2.64667 87.8389 3.153 87.6853 3.671 87.6853C4.18899 87.6853 4.69533 87.8389 5.12585 88.1268C5.55637 88.4147 5.8917 88.8238 6.08935 89.3024C6.287 89.7809 6.33808 90.3073 6.23611 90.8148C6.13414 91.3224 5.88371 91.7884 5.51655 92.1536C5.02447 92.6378 4.36158 92.9092 3.671 92.9092C2.98041 92.9092 2.31752 92.6378 1.82544 92.1536V92.1536Z" stroke="#9E9E9E" stroke-width="0.5" stroke-miterlimit="10"/>
<path d="M1.82544 106.599C1.45828 106.234 1.20786 105.768 1.10588 105.26C1.00391 104.753 1.05499 104.226 1.25264 103.748C1.45029 103.269 1.78563 102.86 2.21615 102.572C2.64667 102.284 3.153 102.131 3.671 102.131C4.18899 102.131 4.69533 102.284 5.12585 102.572C5.55637 102.86 5.8917 103.269 6.08935 103.748C6.287 104.226 6.33808 104.753 6.23611 105.26C6.13414 105.768 5.88371 106.234 5.51655 106.599C5.02627 107.087 4.36271 107.36 3.671 107.36C2.97929 107.36 2.31572 107.087 1.82544 106.599V106.599Z" stroke="#9E9E9E" stroke-width="0.5" stroke-miterlimit="10"/>
<path d="M1.82544 121.058C1.45828 120.693 1.20786 120.227 1.10588 119.719C1.00391 119.212 1.05499 118.686 1.25264 118.207C1.45029 117.728 1.78563 117.319 2.21615 117.031C2.64667 116.744 3.153 116.59 3.671 116.59C4.18899 116.59 4.69533 116.744 5.12585 117.031C5.55637 117.319 5.8917 117.728 6.08935 118.207C6.287 118.686 6.33808 119.212 6.23611 119.719C6.13414 120.227 5.88371 120.693 5.51655 121.058C5.02627 121.546 4.36271 121.82 3.671 121.82C2.97929 121.82 2.31572 121.546 1.82544 121.058V121.058Z" fill="#9E9E9E"/>
<path d="M16.427 34.472C16.0598 34.1068 15.8094 33.6408 15.7074 33.1333C15.6055 32.6257 15.6566 32.0993 15.8542 31.6208C16.0519 31.1423 16.3872 30.7331 16.8177 30.4452C17.2482 30.1573 17.7546 30.0037 18.2726 30.0037C18.7906 30.0037 19.2969 30.1573 19.7274 30.4452C20.1579 30.7331 20.4933 31.1423 20.6909 31.6208C20.8886 32.0993 20.9396 32.6257 20.8377 33.1333C20.7357 33.6408 20.4853 34.1068 20.1181 34.472C19.8763 34.7151 19.5887 34.9081 19.272 35.0398C18.9553 35.1715 18.6156 35.2393 18.2726 35.2393C17.9295 35.2393 17.5899 35.1715 17.2731 35.0398C16.9564 34.9081 16.6688 34.7151 16.427 34.472V34.472Z" stroke="#9E9E9E" stroke-width="0.5" stroke-miterlimit="10"/>
<path d="M16.427 48.931C16.0598 48.5658 15.8094 48.0999 15.7074 47.5923C15.6055 47.0848 15.6566 46.5583 15.8542 46.0798C16.0519 45.6013 16.3872 45.1922 16.8177 44.9043C17.2482 44.6164 17.7546 44.4627 18.2726 44.4627C18.7906 44.4627 19.2969 44.6164 19.7274 44.9043C20.1579 45.1922 20.4933 45.6013 20.6909 46.0798C20.8886 46.5583 20.9396 47.0848 20.8377 47.5923C20.7357 48.0999 20.4853 48.5658 20.1181 48.931C19.6278 49.4186 18.9643 49.6924 18.2726 49.6924C17.5808 49.6924 16.9173 49.4186 16.427 48.931V48.931Z" fill="#9E9E9E"/>
<path d="M16.427 63.3196C16.0598 62.9545 15.8094 62.4886 15.7074 61.981C15.6055 61.4734 15.6566 60.947 15.8542 60.4685C16.0519 59.9899 16.3872 59.5808 16.8177 59.293C17.2482 59.0051 17.7546 58.8514 18.2726 58.8514C18.7906 58.8514 19.2969 59.0051 19.7274 59.293C20.1579 59.5808 20.4933 59.9899 20.6909 60.4685C20.8886 60.947 20.9396 61.4734 20.8377 61.981C20.7357 62.4886 20.4853 62.9545 20.1181 63.3196C19.6278 63.8073 18.9643 64.0811 18.2726 64.0811C17.5808 64.0811 16.9173 63.8073 16.427 63.3196V63.3196Z" stroke="#9E9E9E" stroke-width="0.5" stroke-miterlimit="10"/>
<path d="M16.427 77.8355C16.0598 77.4703 15.8094 77.0044 15.7074 76.4968C15.6055 75.9892 15.6566 75.4629 15.8542 74.9843C16.0519 74.5058 16.3872 74.0966 16.8177 73.8087C17.2482 73.5209 17.7546 73.3672 18.2726 73.3672C18.7906 73.3672 19.2969 73.5209 19.7274 73.8087C20.1579 74.0966 20.4933 74.5058 20.6909 74.9843C20.8886 75.4629 20.9396 75.9892 20.8377 76.4968C20.7357 77.0044 20.4853 77.4703 20.1181 77.8355C19.8763 78.0787 19.5887 78.2716 19.272 78.4033C18.9553 78.535 18.6156 78.6028 18.2726 78.6028C17.9295 78.6028 17.5899 78.535 17.2731 78.4033C16.9564 78.2716 16.6688 78.0787 16.427 77.8355V77.8355Z" fill="#9E9E9E"/>
<path d="M16.427 92.2952C16.0598 91.93 15.8094 91.4642 15.7074 90.9566C15.6055 90.449 15.6566 89.9226 15.8542 89.444C16.0519 88.9655 16.3872 88.5564 16.8177 88.2685C17.2482 87.9807 17.7546 87.8269 18.2726 87.8269C18.7906 87.8269 19.2969 87.9807 19.7274 88.2685C20.1579 88.5564 20.4933 88.9655 20.6909 89.444C20.8886 89.9226 20.9396 90.449 20.8377 90.9566C20.7357 91.4642 20.4853 91.93 20.1181 92.2952C19.8763 92.5384 19.5887 92.7314 19.272 92.863C18.9553 92.9947 18.6156 93.0625 18.2726 93.0625C17.9295 93.0625 17.5899 92.9947 17.2731 92.863C16.9564 92.7314 16.6688 92.5384 16.427 92.2952V92.2952Z" fill="#9E9E9E"/>
<path d="M16.427 106.754C16.0598 106.389 15.8094 105.923 15.7074 105.415C15.6055 104.908 15.6566 104.382 15.8542 103.903C16.0519 103.425 16.3872 103.015 16.8177 102.727C17.2482 102.44 17.7546 102.286 18.2726 102.286C18.7906 102.286 19.2969 102.44 19.7274 102.727C20.1579 103.015 20.4933 103.425 20.6909 103.903C20.8886 104.382 20.9396 104.908 20.8377 105.415C20.7357 105.923 20.4853 106.389 20.1181 106.754C19.6278 107.242 18.9643 107.516 18.2726 107.516C17.5808 107.516 16.9173 107.242 16.427 106.754V106.754Z" stroke="#9E9E9E" stroke-width="0.5" stroke-miterlimit="10"/>
<path d="M16.427 121.27C16.0598 120.905 15.8094 120.439 15.7074 119.931C15.6055 119.424 15.6566 118.897 15.8542 118.419C16.0519 117.94 16.3872 117.531 16.8177 117.243C17.2482 116.956 17.7546 116.802 18.2726 116.802C18.7906 116.802 19.2969 116.956 19.7274 117.243C20.1579 117.531 20.4933 117.94 20.6909 118.419C20.8886 118.897 20.9396 119.424 20.8377 119.931C20.7357 120.439 20.4853 120.905 20.1181 121.27C19.6278 121.758 18.9643 122.031 18.2726 122.031C17.5808 122.031 16.9173 121.758 16.427 121.27V121.27Z" stroke="#9E9E9E" stroke-width="0.5" stroke-miterlimit="10"/>
<path d="M1.82544 135.023C1.45828 134.657 1.20786 134.192 1.10588 133.684C1.00391 133.176 1.05499 132.65 1.25264 132.172C1.45029 131.693 1.78563 131.284 2.21615 130.996C2.64667 130.708 3.153 130.554 3.671 130.554C4.18899 130.554 4.69533 130.708 5.12585 130.996C5.55637 131.284 5.8917 131.693 6.08935 132.172C6.287 132.65 6.33808 133.176 6.23611 133.684C6.13414 134.192 5.88371 134.657 5.51655 135.023C5.02447 135.507 4.36158 135.778 3.671 135.778C2.98041 135.778 2.31752 135.507 1.82544 135.023V135.023Z" fill="#9E9E9E"/>
<path d="M34.7004 34.3304C34.3333 33.9652 34.0829 33.4993 33.9809 32.9918C33.8789 32.4842 33.93 31.9577 34.1276 31.4792C34.3253 31.0007 34.6606 30.5916 35.0912 30.3037C35.5217 30.0158 36.028 29.8622 36.546 29.8622C37.064 29.8622 37.5703 30.0158 38.0008 30.3037C38.4314 30.5916 38.7667 31.0007 38.9644 31.4792C39.162 31.9577 39.2131 32.4842 39.1111 32.9918C39.0091 33.4993 38.7587 33.9652 38.3916 34.3304C37.9013 34.8181 37.2377 35.0918 36.546 35.0918C35.8543 35.0918 35.1907 34.8181 34.7004 34.3304V34.3304Z" fill="#9E9E9E"/>
<path d="M34.7004 19.6871C34.3333 19.3219 34.0829 18.856 33.9809 18.3484C33.8789 17.8409 33.93 17.3144 34.1276 16.8359C34.3253 16.3574 34.6606 15.9483 35.0912 15.6604C35.5217 15.3725 36.028 15.2188 36.546 15.2188C37.064 15.2188 37.5703 15.3725 38.0008 15.6604C38.4314 15.9483 38.7667 16.3574 38.9644 16.8359C39.162 17.3144 39.2131 17.8409 39.1111 18.3484C39.0091 18.856 38.7587 19.3219 38.3916 19.6871C38.1497 19.9302 37.8622 20.1232 37.5454 20.2549C37.2287 20.3866 36.889 20.4543 36.546 20.4543C36.203 20.4543 35.8633 20.3866 35.5466 20.2549C35.2298 20.1232 34.9423 19.9302 34.7004 19.6871V19.6871Z" fill="#9E9E9E"/>
<path d="M34.7004 48.7757C34.3333 48.4105 34.0829 47.9445 33.9809 47.437C33.8789 46.9294 33.93 46.403 34.1276 45.9245C34.3253 45.446 34.6606 45.0368 35.0912 44.7489C35.5217 44.461 36.028 44.3074 36.546 44.3074C37.064 44.3074 37.5703 44.461 38.0008 44.7489C38.4314 45.0368 38.7667 45.446 38.9644 45.9245C39.162 46.403 39.2131 46.9294 39.1111 47.437C39.0091 47.9445 38.7587 48.4105 38.3916 48.7757C38.1497 49.0189 37.8622 49.2118 37.5454 49.3435C37.2287 49.4752 36.889 49.543 36.546 49.543C36.203 49.543 35.8633 49.4752 35.5466 49.3435C35.2298 49.2118 34.9423 49.0189 34.7004 48.7757V48.7757Z" stroke="#9E9E9E" stroke-width="0.5" stroke-miterlimit="10"/>
<path d="M34.7004 5.46808C34.3333 5.10289 34.0829 4.63702 33.9809 4.12944C33.8789 3.62187 33.93 3.09543 34.1276 2.61689C34.3253 2.13836 34.6606 1.72927 35.0912 1.4414C35.5217 1.15352 36.028 0.999786 36.546 0.999786C37.064 0.999786 37.5703 1.15352 38.0008 1.4414C38.4314 1.72927 38.7667 2.13836 38.9644 2.61689C39.162 3.09543 39.2131 3.62187 39.1111 4.12944C39.0091 4.63702 38.7587 5.10289 38.3916 5.46808C38.1497 5.71124 37.8622 5.90422 37.5454 6.0359C37.2287 6.16758 36.889 6.23535 36.546 6.23535C36.203 6.23535 35.8633 6.16758 35.5466 6.0359C35.2298 5.90422 34.9423 5.71124 34.7004 5.46808V5.46808Z" stroke="#9E9E9E" stroke-width="0.5" stroke-miterlimit="10"/>
<path d="M34.7004 63.2347C34.3333 62.8695 34.0829 62.4036 33.9809 61.896C33.8789 61.3885 33.93 60.862 34.1276 60.3835C34.3253 59.905 34.6606 59.4959 35.0912 59.208C35.5217 58.9201 36.028 58.7664 36.546 58.7664C37.064 58.7664 37.5703 58.9201 38.0008 59.208C38.4314 59.4959 38.7667 59.905 38.9644 60.3835C39.162 60.862 39.2131 61.3885 39.1111 61.896C39.0091 62.4036 38.7587 62.8695 38.3916 63.2347C38.1497 63.4778 37.8622 63.6708 37.5454 63.8025C37.2287 63.9342 36.889 64.002 36.546 64.002C36.203 64.002 35.8633 63.9342 35.5466 63.8025C35.2298 63.6708 34.9423 63.4778 34.7004 63.2347V63.2347Z" fill="#9E9E9E"/>
<path d="M34.7004 77.6936C34.3333 77.3284 34.0829 76.8625 33.9809 76.355C33.8789 75.8474 33.93 75.321 34.1276 74.8425C34.3253 74.364 34.6606 73.9548 35.0912 73.6669C35.5217 73.379 36.028 73.2254 36.546 73.2254C37.064 73.2254 37.5703 73.379 38.0008 73.6669C38.4314 73.9548 38.7667 74.364 38.9644 74.8425C39.162 75.321 39.2131 75.8474 39.1111 76.355C39.0091 76.8625 38.7587 77.3284 38.3916 77.6936C37.9013 78.1812 37.2377 78.4551 36.546 78.4551C35.8543 78.4551 35.1907 78.1812 34.7004 77.6936V77.6936Z" fill="#9E9E9E"/>
<path d="M34.7004 92.1534C34.3333 91.7882 34.0829 91.3222 33.9809 90.8147C33.8789 90.3071 33.93 89.7807 34.1276 89.3022C34.3253 88.8237 34.6606 88.4145 35.0912 88.1266C35.5217 87.8387 36.028 87.6851 36.546 87.6851C37.064 87.6851 37.5703 87.8387 38.0008 88.1266C38.4314 88.4145 38.7667 88.8237 38.9644 89.3022C39.162 89.7807 39.2131 90.3071 39.1111 90.8147C39.0091 91.3222 38.7587 91.7882 38.3916 92.1534C37.9013 92.641 37.2377 92.9148 36.546 92.9148C35.8543 92.9148 35.1907 92.641 34.7004 92.1534V92.1534Z" stroke="#9E9E9E" stroke-width="0.5" stroke-miterlimit="10"/>
<path d="M34.7004 106.599C34.3333 106.234 34.0829 105.768 33.9809 105.26C33.8789 104.753 33.93 104.226 34.1276 103.748C34.3253 103.269 34.6606 102.86 35.0912 102.572C35.5217 102.284 36.028 102.131 36.546 102.131C37.064 102.131 37.5703 102.284 38.0008 102.572C38.4314 102.86 38.7667 103.269 38.9644 103.748C39.162 104.226 39.2131 104.753 39.1111 105.26C39.0091 105.768 38.7587 106.234 38.3916 106.599C38.1497 106.842 37.8622 107.035 37.5454 107.167C37.2287 107.298 36.889 107.366 36.546 107.366C36.203 107.366 35.8633 107.298 35.5466 107.167C35.2298 107.035 34.9423 106.842 34.7004 106.599V106.599Z" fill="#9E9E9E"/>
<path d="M34.7004 121.058C34.3333 120.693 34.0829 120.227 33.9809 119.719C33.8789 119.212 33.93 118.686 34.1276 118.207C34.3253 117.728 34.6606 117.319 35.0912 117.031C35.5217 116.744 36.028 116.59 36.546 116.59C37.064 116.59 37.5703 116.744 38.0008 117.031C38.4314 117.319 38.7667 117.728 38.9644 118.207C39.162 118.686 39.2131 119.212 39.1111 119.719C39.0091 120.227 38.7587 120.693 38.3916 121.058C38.1497 121.301 37.8622 121.494 37.5454 121.626C37.2287 121.758 36.889 121.825 36.546 121.825C36.203 121.825 35.8633 121.758 35.5466 121.626C35.2298 121.494 34.9423 121.301 34.7004 121.058V121.058Z" fill="#9E9E9E"/>
<path d="M49.3106 34.4715C48.9454 34.1055 48.697 33.6396 48.5966 33.1325C48.4963 32.6255 48.5485 32.1001 48.7467 31.6227C48.945 31.1454 49.2803 30.7374 49.7104 30.4504C50.1405 30.1634 50.646 30.0103 51.1632 30.0103C51.6803 30.0103 52.1859 30.1634 52.616 30.4504C53.046 30.7374 53.3814 31.1454 53.5796 31.6227C53.7779 32.1001 53.8301 32.6255 53.7298 33.1325C53.6294 33.6396 53.381 34.1055 53.0158 34.4715C52.7728 34.7151 52.484 34.9083 52.1661 35.0402C51.8482 35.1721 51.5074 35.24 51.1632 35.24C50.819 35.24 50.4782 35.1721 50.1603 35.0402C49.8423 34.9083 49.5536 34.7151 49.3106 34.4715V34.4715Z" stroke="#9E9E9E" stroke-width="0.5" stroke-miterlimit="10"/>
<path d="M49.3106 48.9307C48.9454 48.5648 48.697 48.0988 48.5966 47.5918C48.4963 47.0847 48.5485 46.5593 48.7467 46.082C48.945 45.6046 49.2803 45.1967 49.7104 44.9097C50.1405 44.6227 50.646 44.4695 51.1632 44.4695C51.6803 44.4695 52.1859 44.6227 52.616 44.9097C53.046 45.1967 53.3814 45.6046 53.5796 46.082C53.7779 46.5593 53.8301 47.0847 53.7298 47.5918C53.6294 48.0988 53.381 48.5648 53.0158 48.9307C52.5231 49.4193 51.8572 49.6934 51.1632 49.6934C50.4692 49.6934 49.8032 49.4193 49.3106 48.9307V48.9307Z" fill="#9E9E9E"/>
<path d="M49.3106 63.3196C48.9454 62.9536 48.697 62.4876 48.5966 61.9806C48.4963 61.4736 48.5485 60.9483 48.7467 60.4709C48.945 59.9935 49.2803 59.5856 49.7104 59.2986C50.1405 59.0116 50.646 58.8584 51.1632 58.8584C51.6803 58.8584 52.1859 59.0116 52.616 59.2986C53.046 59.5856 53.3814 59.9935 53.5796 60.4709C53.7779 60.9483 53.8301 61.4736 53.7298 61.9806C53.6294 62.4876 53.381 62.9536 53.0158 63.3196C52.5231 63.8081 51.8572 64.0823 51.1632 64.0823C50.4692 64.0823 49.8032 63.8081 49.3106 63.3196V63.3196Z" stroke="#9E9E9E" stroke-width="0.5" stroke-miterlimit="10"/>
<path d="M62.9981 48.7755C62.6329 48.4095 62.3845 47.9435 62.2841 47.4365C62.1838 46.9295 62.236 46.4041 62.4342 45.9267C62.6325 45.4493 62.9678 45.0414 63.3979 44.7544C63.828 44.4674 64.3335 44.3142 64.8507 44.3142C65.3678 44.3142 65.8734 44.4674 66.3035 44.7544C66.7335 45.0414 67.0689 45.4493 67.2671 45.9267C67.4654 46.4041 67.5176 46.9295 67.4173 47.4365C67.3169 47.9435 67.0685 48.4095 66.7033 48.7755C66.4603 49.0191 66.1715 49.2123 65.8536 49.3441C65.5357 49.476 65.1949 49.5439 64.8507 49.5439C64.5065 49.5439 64.1657 49.476 63.8478 49.3441C63.5298 49.2123 63.2411 49.0191 62.9981 48.7755V48.7755Z" stroke="#9E9E9E" stroke-width="0.5" stroke-miterlimit="10"/>
<path d="M62.9981 63.2344C62.6329 62.8685 62.3845 62.4025 62.2841 61.8955C62.1838 61.3884 62.236 60.8631 62.4342 60.3858C62.6325 59.9084 62.9678 59.5005 63.3979 59.2135C63.828 58.9265 64.3335 58.7732 64.8507 58.7732C65.3678 58.7732 65.8734 58.9265 66.3035 59.2135C66.7335 59.5005 67.0689 59.9084 67.2671 60.3858C67.4654 60.8631 67.5176 61.3884 67.4173 61.8955C67.3169 62.4025 67.0685 62.8685 66.7033 63.2344C66.4603 63.478 66.1715 63.6713 65.8536 63.8032C65.5357 63.9351 65.1949 64.0029 64.8507 64.0029C64.5065 64.0029 64.1657 63.9351 63.8478 63.8032C63.5298 63.6713 63.2411 63.478 62.9981 63.2344V63.2344Z" fill="#9E9E9E"/>
<path d="M77.6223 48.931C77.2552 48.5658 77.0047 48.0999 76.9028 47.5923C76.8008 47.0848 76.8519 46.5583 77.0495 46.0798C77.2472 45.6013 77.5825 45.1922 78.013 44.9043C78.4435 44.6164 78.9499 44.4627 79.4679 44.4627C79.9859 44.4627 80.4922 44.6164 80.9227 44.9043C81.3532 45.1922 81.6886 45.6013 81.8862 46.0798C82.0839 46.5583 82.135 47.0848 82.033 47.5923C81.931 48.0999 81.6806 48.5658 81.3134 48.931C80.8231 49.4186 80.1596 49.6924 79.4679 49.6924C78.7762 49.6924 78.1126 49.4186 77.6223 48.931V48.931Z" fill="#9E9E9E"/>
<path d="M77.6223 63.3196C77.2552 62.9545 77.0047 62.4886 76.9028 61.981C76.8008 61.4734 76.8519 60.947 77.0495 60.4685C77.2472 59.9899 77.5825 59.5808 78.013 59.293C78.4435 59.0051 78.9499 58.8514 79.4679 58.8514C79.9859 58.8514 80.4922 59.0051 80.9227 59.293C81.3532 59.5808 81.6886 59.9899 81.8862 60.4685C82.0839 60.947 82.135 61.4734 82.033 61.981C81.931 62.4886 81.6806 62.9545 81.3134 63.3196C80.8231 63.8073 80.1596 64.0811 79.4679 64.0811C78.7762 64.0811 78.1126 63.8073 77.6223 63.3196V63.3196Z" stroke="#9E9E9E" stroke-width="0.5" stroke-miterlimit="10"/>
<path d="M93.5676 63.3196C93.2005 62.9545 92.95 62.4886 92.8481 61.981C92.7461 61.4734 92.7972 60.947 92.9948 60.4685C93.1925 59.9899 93.5278 59.5808 93.9583 59.293C94.3889 59.0051 94.8952 58.8514 95.4132 58.8514C95.9312 58.8514 96.4375 59.0051 96.868 59.293C97.2986 59.5808 97.6339 59.9899 97.8315 60.4685C98.0292 60.947 98.0803 61.4734 97.9783 61.981C97.8763 62.4886 97.6259 62.9545 97.2587 63.3196C96.7685 63.8073 96.1049 64.0811 95.4132 64.0811C94.7215 64.0811 94.0579 63.8073 93.5676 63.3196V63.3196Z" stroke="#9E9E9E" stroke-width="0.5" stroke-miterlimit="10"/>
<path d="M49.3106 77.835C48.9454 77.469 48.697 77.0031 48.5966 76.4961C48.4963 75.989 48.5485 75.4636 48.7467 74.9863C48.945 74.5089 49.2803 74.101 49.7104 73.814C50.1405 73.527 50.646 73.3738 51.1632 73.3738C51.6803 73.3738 52.1859 73.527 52.616 73.814C53.046 74.101 53.3814 74.5089 53.5796 74.9863C53.7779 75.4636 53.8301 75.989 53.7298 76.4961C53.6294 77.0031 53.381 77.469 53.0158 77.835C52.7728 78.0786 52.484 78.2718 52.1661 78.4037C51.8482 78.5356 51.5074 78.6035 51.1632 78.6035C50.819 78.6035 50.4782 78.5356 50.1603 78.4037C49.8423 78.2718 49.5536 78.0786 49.3106 77.835V77.835Z" fill="#9E9E9E"/>
<path d="M49.3106 92.2948C48.9454 91.9288 48.697 91.4628 48.5966 90.9558C48.4963 90.4487 48.5485 89.9234 48.7467 89.4461C48.945 88.9687 49.2803 88.5608 49.7104 88.2738C50.1405 87.9868 50.646 87.8335 51.1632 87.8335C51.6803 87.8335 52.1859 87.9868 52.616 88.2738C53.046 88.5608 53.3814 88.9687 53.5796 89.4461C53.7779 89.9234 53.8301 90.4487 53.7298 90.9558C53.6294 91.4628 53.381 91.9288 53.0158 92.2948C52.7728 92.5383 52.484 92.7316 52.1661 92.8635C51.8482 92.9954 51.5074 93.0632 51.1632 93.0632C50.819 93.0632 50.4782 92.9954 50.1603 92.8635C49.8423 92.7316 49.5536 92.5383 49.3106 92.2948V92.2948Z" fill="#9E9E9E"/>
<path d="M62.9981 92.2948C62.6329 91.9288 62.3845 91.4628 62.2841 90.9558C62.1838 90.4487 62.236 89.9234 62.4342 89.4461C62.6325 88.9687 62.9678 88.5608 63.3979 88.2738C63.828 87.9868 64.3335 87.8335 64.8507 87.8335C65.3678 87.8335 65.8734 87.9868 66.3035 88.2738C66.7335 88.5608 67.0689 88.9687 67.2671 89.4461C67.4654 89.9234 67.5176 90.4487 67.4173 90.9558C67.3169 91.4628 67.0685 91.9288 66.7033 92.2948C66.4603 92.5383 66.1715 92.7316 65.8536 92.8635C65.5357 92.9954 65.1949 93.0632 64.8507 93.0632C64.5065 93.0632 64.1657 92.9954 63.8478 92.8635C63.5298 92.7316 63.2411 92.5383 62.9981 92.2948V92.2948Z" fill="#9E9E9E"/>
<path d="M49.3106 106.754C48.9454 106.388 48.697 105.922 48.5966 105.415C48.4963 104.908 48.5485 104.383 48.7467 103.905C48.945 103.428 49.2803 103.02 49.7104 102.733C50.1405 102.446 50.646 102.293 51.1632 102.293C51.6803 102.293 52.1859 102.446 52.616 102.733C53.046 103.02 53.3814 103.428 53.5796 103.905C53.7779 104.383 53.8301 104.908 53.7298 105.415C53.6294 105.922 53.381 106.388 53.0158 106.754C52.5231 107.243 51.8572 107.517 51.1632 107.517C50.4692 107.517 49.8032 107.243 49.3106 106.754V106.754Z" stroke="#9E9E9E" stroke-width="0.5" stroke-miterlimit="10"/>
<path d="M49.3106 121.271C48.9454 120.905 48.697 120.439 48.5966 119.932C48.4963 119.424 48.5485 118.899 48.7467 118.422C48.945 117.944 49.2803 117.537 49.7104 117.25C50.1405 116.963 50.646 116.809 51.1632 116.809C51.6803 116.809 52.1859 116.963 52.616 117.25C53.046 117.537 53.3814 117.944 53.5796 118.422C53.7779 118.899 53.8301 119.424 53.7298 119.932C53.6294 120.439 53.381 120.905 53.0158 121.271C52.5231 121.759 51.8572 122.033 51.1632 122.033C50.4692 122.033 49.8032 121.759 49.3106 121.271V121.271Z" stroke="#9E9E9E" stroke-width="0.5" stroke-miterlimit="10"/>
<path d="M34.7004 135.023C34.3333 134.657 34.0829 134.192 33.9809 133.684C33.8789 133.176 33.93 132.65 34.1276 132.172C34.3253 131.693 34.6606 131.284 35.0912 130.996C35.5217 130.708 36.028 130.554 36.546 130.554C37.064 130.554 37.5703 130.708 38.0008 130.996C38.4314 131.284 38.7667 131.693 38.9644 132.172C39.162 132.65 39.2131 133.176 39.1111 133.684C39.0091 134.192 38.7587 134.657 38.3916 135.023C37.9013 135.51 37.2377 135.784 36.546 135.784C35.8543 135.784 35.1907 135.51 34.7004 135.023V135.023Z" fill="#9E9E9E"/>
</g>
</svg>
