<svg width="119" height="42" viewBox="0 0 119 42" fill="none" xmlns="http://www.w3.org/2000/svg">
<path d="M19.3415 40.1213C18.8811 39.664 18.5671 39.0805 18.4392 38.445C18.3113 37.8094 18.3754 37.1503 18.6232 36.5511C18.8711 35.9519 19.2916 35.4395 19.8314 35.0791C20.3713 34.7186 21.0062 34.5262 21.6558 34.5262C22.3053 34.5262 22.9402 34.7186 23.4801 35.0791C24.02 35.4395 24.4405 35.9519 24.6883 36.5511C24.9362 37.1503 25.0002 37.8094 24.8723 38.445C24.7445 39.0805 24.4304 39.664 23.97 40.1213C23.6668 40.4258 23.3062 40.6674 22.909 40.8323C22.5119 40.9972 22.0859 41.082 21.6558 41.082C21.2256 41.082 20.7997 40.9972 20.4025 40.8323C20.0053 40.6674 19.6447 40.4258 19.3415 40.1213V40.1213Z" fill="#22389A"/>
<path d="M0.966496 21.8396C0.506095 21.3823 0.19207 20.7989 0.0642018 20.1634C-0.0636664 19.5278 0.000372389 18.8686 0.248222 18.2694C0.496071 17.6702 0.916565 17.1579 1.45643 16.7974C1.99629 16.437 2.63122 16.2445 3.28077 16.2445C3.93031 16.2445 4.56525 16.437 5.10511 16.7974C5.64497 17.1579 6.06546 17.6702 6.31331 18.2694C6.56116 18.8686 6.6252 19.5278 6.49733 20.1634C6.36946 20.7989 6.05544 21.3823 5.59504 21.8396C4.98024 22.4502 4.14815 22.793 3.28077 22.793C2.41339 22.793 1.5813 22.4502 0.966496 21.8396V21.8396Z" fill="#22389A"/>
<path d="M19.3415 21.945C18.8811 21.4877 18.5671 20.9044 18.4392 20.2688C18.3113 19.6333 18.3754 18.9741 18.6232 18.3748C18.8711 17.7756 19.2916 17.2634 19.8314 16.9029C20.3713 16.5424 21.0062 16.3499 21.6558 16.3499C22.3053 16.3499 22.9402 16.5424 23.4801 16.9029C24.02 17.2634 24.4405 17.7756 24.6883 18.3748C24.9362 18.9741 25.0002 19.6333 24.8723 20.2688C24.7445 20.9044 24.4304 21.4877 23.97 21.945C23.3552 22.5557 22.5231 22.8984 21.6558 22.8984C20.7884 22.8984 19.9563 22.5557 19.3415 21.945Z" stroke="#23399B" stroke-width="0.5" stroke-miterlimit="10"/>
<path d="M42.2009 21.84C41.7405 21.3827 41.4264 20.7994 41.2986 20.1638C41.1707 19.5283 41.2348 18.869 41.4826 18.2698C41.7305 17.6706 42.151 17.1584 42.6908 16.7979C43.2307 16.4374 43.8656 16.2449 44.5152 16.2449C45.1647 16.2449 45.7996 16.4374 46.3395 16.7979C46.8793 17.1584 47.2998 17.6706 47.5477 18.2698C47.7955 18.869 47.8596 19.5283 47.7317 20.1638C47.6039 20.7994 47.2898 21.3827 46.8294 21.84C46.5262 22.1445 46.1656 22.3861 45.7684 22.551C45.3712 22.7159 44.9453 22.8008 44.5152 22.8008C44.085 22.8008 43.6591 22.7159 43.2619 22.551C42.8647 22.3861 42.5041 22.1445 42.2009 21.84V21.84Z" fill="#22389A"/>
<path d="M117.471 6.88225C116.989 7.36632 116.374 7.69649 115.704 7.83094C115.034 7.96538 114.339 7.89804 113.707 7.63745C113.076 7.37686 112.536 6.93474 112.156 6.36712C111.776 5.79951 111.573 5.13194 111.573 4.449C111.573 3.76606 111.776 3.09849 112.156 2.53087C112.536 1.96325 113.076 1.52114 113.707 1.26055C114.339 0.999958 115.034 0.93262 115.704 1.06706C116.374 1.2015 116.989 1.53167 117.471 2.01574C118.115 2.66216 118.477 3.53702 118.477 4.449C118.477 5.36097 118.115 6.23584 117.471 6.88225V6.88225Z" fill="#22389A"/>
<path d="M65.0027 6.88225C64.5206 7.36632 63.9056 7.69649 63.2356 7.83094C62.5655 7.96538 61.8705 7.89804 61.2388 7.63745C60.6071 7.37686 60.067 6.93474 59.687 6.36712C59.3069 5.79951 59.104 5.13194 59.104 4.449C59.104 3.76606 59.3069 3.09849 59.687 2.53087C60.067 1.96325 60.6071 1.52114 61.2388 1.26055C61.8705 0.999958 62.5655 0.93262 63.2356 1.06706C63.9056 1.2015 64.5206 1.53167 65.0027 2.01574C65.3237 2.33459 65.5785 2.71371 65.7523 3.13131C65.9262 3.5489 66.0156 3.99671 66.0156 4.449C66.0156 4.90128 65.9262 5.3491 65.7523 5.76669C65.5785 6.18429 65.3237 6.5634 65.0027 6.88225V6.88225Z" stroke="#23399B" stroke-miterlimit="10"/>
<path d="M47.237 6.88225C46.7549 7.36632 46.1399 7.69649 45.4698 7.83094C44.7998 7.96538 44.1049 7.89804 43.4732 7.63745C42.8414 7.37686 42.3013 6.93474 41.9212 6.36712C41.5412 5.79951 41.3384 5.13194 41.3384 4.449C41.3384 3.76606 41.5412 3.09849 41.9212 2.53087C42.3013 1.96325 42.8414 1.52114 43.4732 1.26055C44.1049 0.999958 44.7998 0.93262 45.4698 1.06706C46.1399 1.2015 46.7549 1.53167 47.237 2.01574C47.558 2.33459 47.8127 2.71371 47.9866 3.13131C48.1604 3.5489 48.25 3.99671 48.25 4.449C48.25 4.90128 48.1604 5.3491 47.9866 5.76669C47.8127 6.18429 47.558 6.5634 47.237 6.88225V6.88225Z" stroke="#23399B" stroke-miterlimit="10"/>
</svg>
