<svg width="28" height="28" viewBox="0 0 28 28" fill="none" xmlns="http://www.w3.org/2000/svg">
<path d="M26.8485 25.5189L20.7548 19.4251H20.6892C22.5674 17.2105 23.5166 14.3554 23.3381 11.457C23.1596 8.55865 21.8674 5.84156 19.7316 3.87412C17.5958 1.90667 14.782 0.84128 11.8788 0.900804C8.97553 0.960327 6.20776 2.14016 4.15443 4.19349C2.10109 6.24682 0.921265 9.0146 0.861741 11.9178C0.802218 14.8211 1.86761 17.6349 3.83506 19.7707C5.8025 21.9064 8.51959 23.1987 11.418 23.3772C14.3163 23.5556 17.1714 22.6065 19.386 20.7282C19.386 20.7282 19.386 20.7751 19.386 20.7938L25.4798 26.8876C25.5669 26.9755 25.6706 27.0452 25.7849 27.0928C25.8991 27.1404 26.0217 27.1649 26.1454 27.1649C26.2692 27.1649 26.3917 27.1404 26.506 27.0928C26.6202 27.0452 26.7239 26.9755 26.811 26.8876C26.9072 26.8025 26.9848 26.6986 27.0391 26.5822C27.0934 26.4659 27.1232 26.3397 27.1267 26.2114C27.1302 26.083 27.1074 25.9554 27.0595 25.8362C27.0117 25.7171 26.9398 25.6091 26.8485 25.5189ZM12.1204 21.497C10.2662 21.497 8.45365 20.9471 6.91194 19.917C5.37023 18.8869 4.16861 17.4227 3.45904 15.7096C2.74947 13.9966 2.56381 12.1116 2.92555 10.293C3.28729 8.47443 4.18017 6.80397 5.49129 5.49285C6.8024 4.18173 8.47287 3.28885 10.2914 2.92711C12.11 2.56538 13.995 2.75103 15.7081 3.4606C17.4211 4.17018 18.8853 5.37179 19.9154 6.9135C20.9456 8.45522 21.4954 10.2678 21.4954 12.122C21.4954 13.3531 21.2529 14.5722 20.7818 15.7096C20.3106 16.8471 19.6201 17.8806 18.7495 18.7511C17.879 19.6217 16.8455 20.3122 15.7081 20.7833C14.5706 21.2545 13.3516 21.497 12.1204 21.497Z" fill="#DCD8D8"/>
</svg>
