<svg width="596" height="876" viewBox="0 0 596 876" fill="black" xmlns="http://www.w3.org/2000/svg">
<path d="M535.948 196.402L515 21.0332M535.948 196.402L450.845 140.127M535.948 196.402L377.468 219.959M535.948 196.402L592.248 354.758M535.948 196.402L457.391 370.463M535.948 196.402L431.205 277.543M515 21.0332L450.845 140.127M515 21.0332H479.649L470.484 51.1339M515 21.0332L470.484 51.1339M450.845 140.127L470.484 51.1339M450.845 140.127L418.112 127.04M450.845 140.127L445.607 93.0131M450.845 140.127L431.205 277.543M450.845 140.127L365.741 174.154M418.112 127.04L445.607 93.0131M418.112 127.04L390.617 68.1473M445.607 93.0131L423.35 95.6306L412.875 69.4561L390.617 68.1473M445.607 93.0131L435.133 48.5165M390.617 68.1473L373.597 21.0332M435.133 48.5165L414.184 68.1473L373.597 21.0332M435.133 48.5165V31.503M435.133 48.5165L450.845 15.7983M435.133 31.503L450.845 15.7983M435.133 31.503L408.947 26.2681M435.133 31.503L415.494 1.40234M450.845 15.7983L415.494 1.40234M415.494 1.40234L395.854 10.5634M415.494 1.40234L408.947 26.2681M395.854 10.5634L408.947 26.2681M395.854 10.5634L373.597 21.0332M395.854 10.5634L343.483 9.2547M373.597 21.0332L343.483 9.2547M373.597 21.0332L346.102 39.3554M343.483 9.2547L317.297 31.503M343.483 9.2547L346.102 39.3554M343.483 9.2547H310.751M317.297 31.503L346.102 39.3554M317.297 31.503L310.751 72.0735M317.297 31.503L263.616 49.8252M317.297 31.503L310.751 9.2547M346.102 39.3554L356.576 77.3084M346.102 39.3554L331.699 74.691M346.102 39.3554L310.751 72.0735M356.576 77.3084L331.699 74.691M356.576 77.3084L356.882 79.0666M331.699 74.691L310.751 72.0735M331.699 74.691L314.679 112.644M331.699 74.691L353.957 117.879M310.751 72.0735L263.616 49.8252M310.751 72.0735L271.472 102.174M310.751 72.0735L289.802 127.04M310.751 72.0735L281.946 74.691M361.813 107.409V140.127M361.813 107.409L356.882 79.0666M361.813 107.409L353.957 117.879M361.813 140.127L353.957 117.879M361.813 140.127L314.679 112.644M353.957 117.879L314.679 112.644M314.679 112.644L356.882 79.0666M263.616 49.8252L281.946 74.691M263.616 49.8252L271.472 102.174M263.616 49.8252L242.668 47.2077M263.616 49.8252L219.101 100.865L242.668 47.2077M263.616 49.8252L310.751 9.2547M263.616 49.8252L212.554 68.1473M263.616 49.8252L245.286 35.4292M271.472 102.174L289.802 127.04M271.472 102.174L281.946 74.691M271.472 102.174L212.554 68.1473M271.472 102.174L242.668 120.496M271.472 102.174L203.389 89.0869M271.472 102.174L158.873 107.409M289.802 127.04L251.833 144.053L242.668 120.496M289.802 127.04L242.668 120.496M289.802 127.04L314.679 137.51M289.802 127.04L295.039 162.376M242.668 47.2077L212.554 68.1473M242.668 47.2077L245.286 35.4292M212.554 68.1473L203.389 89.0869M212.554 68.1473L158.873 107.409M212.554 68.1473L245.286 35.4292M212.554 68.1473L169.348 81.2346L158.873 107.409M203.389 89.0869L219.101 101.651M203.389 89.0869L195.534 120.496M242.668 120.496H195.534M242.668 120.496L219.101 101.651M158.873 107.409L195.534 120.496M158.873 107.409L183.75 144.053M158.873 107.409L161.492 137.51M158.873 107.409L123.523 121.805M195.534 120.496L229.575 162.376M195.534 120.496L251.833 145.362L229.575 162.376M195.534 120.496L219.101 101.651M195.534 120.496L183.75 144.053M195.534 120.496L196.843 183.315M195.534 120.496L161.492 137.51M229.575 162.376L196.843 183.315M229.575 162.376L183.75 144.053M229.575 162.376L238.74 188.55M229.575 162.376L219.101 208.181M314.679 137.51L295.039 162.376M314.679 137.51L321.225 155.832M314.679 137.51L365.741 174.154M295.039 162.376L329.081 196.402M295.039 162.376L302.895 192.476M295.039 162.376L285.874 208.181M295.039 162.376L321.225 155.832M295.039 162.376L365.741 174.154M329.081 196.402L302.895 192.476M329.081 196.402L321.225 155.832M329.081 196.402L365.741 174.154M329.081 196.402L376.215 248.751M329.081 196.402L377.468 219.959M329.081 196.402L360.504 195.094M329.081 196.402L315.988 234.355M302.895 192.476L285.874 208.181M302.895 192.476L315.988 234.355M285.874 208.181L315.988 234.355M285.874 208.181L271.472 246.134M365.741 174.154L360.504 195.094M365.741 174.154L405.019 231.738M365.741 174.154L377.524 218.651M376.215 248.751L399.782 239.59M376.215 248.751L377.468 219.959M376.215 248.751L315.988 234.355M376.215 248.751L342.174 256.604M376.215 248.751L352.648 264.456M377.524 218.651L360.504 195.094M377.524 218.651L399.782 239.59M377.524 218.651L405.019 231.738M377.524 218.651L377.468 219.959M377.524 218.651L342.174 256.604M377.524 218.651L315.988 234.355M405.019 231.738L399.782 239.59M399.782 239.59L391.927 274.926L431.205 277.543M399.782 239.59L431.205 277.543M342.174 256.604L315.988 234.355M342.174 256.604L329.081 280.161M342.174 256.604L271.472 246.134M315.988 234.355L271.472 246.134M315.988 234.355L329.081 280.161M431.205 277.543L326.462 352.141M431.205 277.543L592.248 354.758M271.472 246.134L329.081 280.161M271.472 246.134L263.616 208.181M271.472 246.134L305.514 306.335M271.472 246.134L219.101 208.181M271.472 246.134L229.575 256.604M271.472 246.134L195.534 234.355M271.472 246.134L257.07 299.792M329.081 280.161L352.648 264.456M329.081 280.161L363.122 286.704M329.081 280.161L348.72 306.335M329.081 280.161L305.514 306.335M363.122 286.704L389.308 294.557L350.029 322.04L348.72 306.335M363.122 286.704L352.648 264.456M363.122 286.704L348.72 306.335M348.72 306.335H305.514M348.72 306.335L323.844 352.141M348.72 306.335L305.514 352.141M326.462 352.141H323.844M326.462 352.141L457.391 370.463M305.514 352.141V306.335M305.514 352.141H323.844M305.514 352.141L281.946 387.476M305.514 306.335L405.019 481.705M305.514 306.335L257.07 299.792M305.514 306.335L257.07 346.906M305.514 306.335L281.946 387.476M323.844 352.141L281.946 387.476M405.019 481.705L291.112 554.993M405.019 481.705L257.07 471.235M405.019 481.705L545.113 539.288M405.019 481.705L457.391 370.463M405.019 481.705L457.391 767.007M291.112 554.993L254.451 539.288L237.431 554.993M291.112 554.993H237.431M291.112 554.993L301.586 579.859M291.112 554.993L319.916 570.698M237.431 554.993L301.586 579.859M183.75 144.053L196.843 183.315M183.75 144.053L162.801 166.302M196.843 183.315L161.492 137.51M196.843 183.315L140.543 188.55M196.843 183.315L162.801 166.302M196.843 183.315L219.101 208.181M196.843 183.315L195.534 234.355M196.843 183.315L156.255 199.02M196.843 183.315L151.018 230.429M161.492 137.51L136.616 159.758M161.492 137.51L123.523 121.805M161.492 137.51L120.904 150.597M161.492 137.51L162.801 166.302M162.801 166.302L136.616 159.758M162.801 166.302L140.543 188.55M162.801 166.302L156.255 199.02M136.616 159.758L120.904 150.597M136.616 159.758L111.739 202.946M120.904 150.597L123.523 121.805M120.904 150.597L101.265 189.859M120.904 150.597L140.543 188.55M120.904 150.597L98.6463 159.758M101.265 189.859L140.543 188.55M101.265 189.859L88.172 202.946M101.265 189.859L126.141 222.577M101.265 189.859L98.6463 159.758M101.265 189.859L105.193 234.355M101.265 189.859L73.7698 259.221M140.543 188.55L156.255 199.02M140.543 188.55L151.018 230.429M140.543 188.55L111.739 202.946M140.543 188.55L126.141 222.577M140.543 188.55L105.193 234.355M111.739 202.946H88.172M111.739 202.946L73.7698 259.221M111.739 202.946L105.193 234.355M88.172 202.946L56.7491 234.355M88.172 202.946L76.3884 178.08L56.7491 234.355M88.172 202.946L73.7698 259.221M126.141 222.577L156.255 199.02M126.141 222.577V252.678M126.141 222.577L151.018 230.429M126.141 222.577L105.193 234.355M156.255 199.02L195.534 234.355M156.255 199.02L151.018 230.429M98.6463 159.758L56.7491 234.355M56.7491 234.355L54.1305 299.792M56.7491 234.355L26.6355 271M73.7698 259.221L54.1305 299.792M73.7698 259.221L92.0998 268.382M73.7698 259.221L105.193 234.355M73.7698 259.221L82.9348 310.261M73.7698 259.221L65.9141 322.04M54.1305 299.792L26.6355 271M54.1305 299.792L26.6355 324.657M54.1305 299.792L65.9141 322.04M54.1305 299.792L44.9655 367.845M26.6355 271V324.657M26.6355 324.657L1.75903 367.845M26.6355 324.657L35.8005 377.006M26.6355 324.657L44.9655 367.845M26.6355 324.657L18.7798 409.725M1.75903 367.845L35.8005 377.006M1.75903 367.845V420.194M35.8005 377.006L44.9655 367.845M35.8005 377.006L1.75903 420.194M35.8005 377.006L54.1305 396.637M238.74 188.55L263.616 208.181M238.74 188.55L219.101 208.181M263.616 208.181H219.101M263.616 208.181L195.534 234.355M219.101 208.181L195.534 234.355M219.101 208.181L151.018 230.429M195.534 234.355L229.575 256.604M195.534 234.355L151.018 230.429M195.534 234.355L196.843 286.704M195.534 234.355L123.523 295.866M195.534 234.355L169.348 310.261M151.018 230.429L126.141 252.678M151.018 230.429L105.193 234.355M151.018 230.429L196.843 286.704M151.018 230.429L169.348 310.261M151.018 230.429L123.523 295.866M105.193 234.355L126.141 252.678M105.193 234.355L92.0998 268.382M105.193 234.355L120.904 295.866M126.141 252.678L82.9348 310.261M126.141 252.678L123.523 295.866M126.141 252.678L169.348 310.261M229.575 256.604L196.843 286.704M229.575 256.604L257.07 299.792M92.0998 268.382L120.904 295.866M92.0998 268.382L82.9348 310.261M120.904 295.866L98.6463 324.657M120.904 295.866L82.9348 310.261M120.904 295.866L90.7906 370.463M82.9348 310.261L65.9141 322.04M82.9348 310.261L98.6463 324.657M82.9348 310.261L76.3884 357.376M65.9141 322.04L44.9655 367.845M65.9141 322.04L76.3884 357.376M65.9141 322.04L98.6463 324.657M44.9655 367.845L76.3884 357.376M44.9655 367.845L90.7906 370.463M76.3884 357.376L90.7906 370.463M76.3884 357.376L133.997 329.892M76.3884 357.376L54.1305 396.637M1.75903 420.194L18.7798 409.725M1.75903 420.194L5.68689 446.369M1.75903 420.194L33.8366 458.802M18.7798 409.725L54.1305 396.637M18.7798 409.725L41.0376 439.825M18.7798 409.725L54.1305 420.194M196.843 286.704L169.348 310.261M196.843 286.704L257.07 299.792M196.843 286.704L257.07 346.906M196.843 286.704L209.936 361.302M123.523 295.866L169.348 310.261M123.523 295.866L133.997 329.892M169.348 310.261L257.07 346.906M169.348 310.261L209.936 361.302M169.348 310.261L257.07 299.792M169.348 310.261L133.997 329.892M169.348 310.261L166.729 369.154M257.07 299.792V346.906M281.946 387.476L257.07 346.906M281.946 387.476L245.286 396.637M281.946 387.476L209.936 361.302M281.946 387.476L291.112 424.121M257.07 346.906L209.936 361.302M257.07 346.906L245.286 396.637M209.936 361.302L166.729 369.154M209.936 361.302L245.286 396.637M209.936 361.302L199.461 439.825M133.997 329.892L98.6463 324.657M133.997 329.892L166.729 369.154M133.997 329.892L120.904 357.376M133.997 329.892L90.7906 370.463M98.6463 324.657L90.7906 370.463M90.7906 370.463L166.729 369.154M90.7906 370.463L133.997 404.49M90.7906 370.463L120.904 357.376M90.7906 370.463L54.1305 396.637M90.7906 370.463L89.1874 409.725M90.7906 370.463L54.1305 420.194M166.729 369.154L199.461 439.825M166.729 369.154L133.997 404.49M166.729 369.154L120.904 357.376M166.729 369.154L139.234 460.765M166.729 369.154L233.503 446.369M245.286 396.637L291.112 424.121M245.286 396.637L233.503 446.369M245.286 396.637L199.461 439.825M245.286 396.637L139.234 460.765M54.1305 396.637L88.172 434.59M54.1305 396.637L89.1874 409.725M54.1305 396.637L133.997 404.49M54.1305 396.637V420.194M291.112 424.121L233.503 446.369M291.112 424.121L257.07 471.235M291.112 424.121L133.997 404.49M233.503 446.369L257.07 471.235M233.503 446.369V476.47M233.503 446.369L199.461 476.47M233.503 446.369L190.296 466M257.07 471.235L274.091 519.658M257.07 471.235L233.503 476.47M274.091 519.658L233.503 476.47M274.091 519.658L257.07 523.584L233.503 476.47M233.503 476.47H199.461M199.461 439.825L133.997 404.49M199.461 439.825V476.47M199.461 439.825L190.296 466M133.997 404.49L120.904 357.376M133.997 404.49L139.234 460.765M133.997 404.49L89.1874 409.725M133.997 404.49L89.1874 471.235M120.904 357.376L89.1874 409.725M88.172 434.59L89.1874 409.725M88.172 434.59L89.1874 471.235M88.172 434.59L139.234 460.765M88.172 434.59L54.1305 420.194M88.172 434.59L56.7491 439.825M88.172 434.59L65.9141 497.409M89.1874 409.725L139.234 460.765M139.234 460.765L118.286 486.939M139.234 460.765L148.399 485.631M139.234 460.765L169.348 485.631M139.234 460.765L190.296 466M199.461 476.47L190.296 466M65.9141 497.409L41.0376 439.825M65.9141 497.409L101.265 527.51M65.9141 497.409L33.8366 458.802M65.9141 497.409L89.1874 471.235M65.9141 497.409L56.7491 439.825M65.9141 497.409L118.286 514.423M65.9141 497.409L101.265 547.141M65.9141 497.409L54.1305 523.584M65.9141 497.409L12.2333 539.288M41.0376 439.825L54.1305 420.194M41.0376 439.825H56.7491M41.0376 439.825L18.7798 493.483M54.1305 420.194L56.7491 439.825M56.7491 439.825L89.1874 471.235M89.1874 471.235L118.286 486.939M89.1874 471.235L118.286 514.423M118.286 486.939V514.423M118.286 486.939L148.399 485.631M118.286 486.939L156.255 541.906M148.399 485.631L118.286 514.423M148.399 485.631L154.946 514.423M118.286 514.423L101.265 527.51M118.286 514.423L169.348 485.631M118.286 514.423L156.255 541.906M118.286 514.423H154.946M118.286 514.423L133.997 561.537M101.265 527.51V547.141M101.265 527.51L156.255 541.906M190.296 466L169.348 485.631M169.348 485.631L154.946 514.423M154.946 514.423L156.255 541.906M156.255 541.906L190.296 598.181M156.255 541.906L133.997 561.537M156.255 541.906L101.265 547.141M156.255 541.906L203.389 589.02M156.255 541.906L162.801 579.859M190.296 598.181L203.389 589.02M190.296 598.181L169.348 617.812M190.296 598.181L133.997 561.537M190.296 598.181L207.317 629.59M203.389 589.02L209.936 566.772H229.575M203.389 589.02L229.575 566.772M203.389 589.02L207.317 629.59M203.389 589.02L233.503 617.812M229.575 566.772L207.317 629.59M229.575 566.772L233.503 617.812M18.7798 493.483L5.68689 446.369M18.7798 493.483L54.1305 523.584M18.7798 493.483L12.2333 539.288M5.68689 446.369L33.8366 458.802M133.997 561.537L101.265 547.141M133.997 561.537L130.069 582.476M101.265 547.141L54.1305 523.584M101.265 547.141L93.4091 598.181M101.265 547.141L130.069 582.476M101.265 547.141L12.2333 539.288M101.265 547.141L44.9655 632.208M54.1305 523.584L48.8934 579.859M54.1305 523.584L93.4091 598.181M12.2333 539.288L48.8934 579.859M12.2333 539.288L93.4091 598.181M48.8934 579.859L44.9655 632.208M48.8934 579.859L98.6463 658.382M93.4091 598.181L98.6463 658.382M93.4091 598.181L130.069 582.476M93.4091 598.181L44.9655 632.208M93.4091 598.181L139.234 675.396M130.069 582.476L169.348 617.812M130.069 582.476L207.317 629.59M130.069 582.476L162.801 579.859M130.069 582.476L139.234 675.396M130.069 582.476L98.6463 658.382M44.9655 632.208L207.317 629.59M44.9655 632.208L139.234 708.114M44.9655 632.208L107.811 727.745M44.9655 632.208L98.6463 658.382M98.6463 658.382L139.234 675.396M98.6463 658.382L139.234 708.114M207.317 629.59L233.503 617.812M233.503 617.812V640.06M233.503 617.812H266.235M169.348 617.812L162.801 579.859M169.348 617.812L139.234 675.396M169.348 617.812L190.296 702.879M139.234 675.396L190.296 702.879M139.234 675.396V708.114M139.234 675.396L233.503 640.06M190.296 702.879L233.503 640.06M190.296 702.879L182.441 759.154M190.296 702.879L139.234 708.114M190.296 702.879L219.101 761.377M190.296 702.879L266.235 675.396M190.296 702.879L254.451 718.584M233.503 640.06L207.317 632.208L199.461 804.96M233.503 640.06L266.235 617.812M233.503 640.06L266.235 675.396M233.503 640.06L266.235 646.604M199.461 804.96L183.266 761.377M199.461 804.96L219.101 761.377M199.461 804.96L266.235 824.591M199.461 804.96L270.163 782.711M199.461 804.96L351.339 790.564M182.441 759.154L139.234 708.114M182.441 759.154L183.266 761.377M139.234 708.114L107.811 727.745M183.266 761.377L107.811 727.745M183.266 761.377H219.101M301.586 579.859L319.916 570.698M301.586 579.859L325.153 589.02M319.916 570.698L360.504 574.624L325.153 589.02M319.916 570.698L325.153 589.02M219.101 761.377L254.451 718.584M219.101 761.377L270.163 782.711M266.235 617.812V646.604M266.235 675.396L254.451 718.584M266.235 675.396V646.604M266.235 675.396L288.493 670.161M266.235 675.396L296.349 691.101M254.451 718.584L296.349 691.101M254.451 718.584L270.163 782.711M254.451 718.584L319.916 739.523M266.235 646.604L288.493 670.161M288.493 670.161L296.349 691.101M288.493 670.161L322.534 662.309M288.493 670.161L308.132 678.013M296.349 691.101L308.132 678.013M296.349 691.101L319.916 739.523M270.163 782.711L266.235 824.591M270.163 782.711L319.916 739.523M270.163 782.711L335.627 767.007M270.163 782.711L327.772 829.825M266.235 824.591L327.772 829.825M266.235 824.591L334.318 865.161M351.339 790.564L335.627 767.007M351.339 790.564L369.669 772.242M351.339 790.564L360.504 739.523M351.339 790.564L334.318 865.161M351.339 790.564L422.04 804.96M351.339 790.564L378.834 814.121M351.339 790.564L393.236 772.242M335.627 767.007L319.916 739.523M335.627 767.007L360.504 739.523M335.627 767.007L369.669 772.242M335.627 767.007L327.772 829.825M319.916 739.523L335.627 727.745M319.916 739.523L327.772 702.879M319.916 739.523L369.669 772.242M319.916 739.523H360.504M335.627 727.745L327.772 702.879M335.627 727.745L360.504 739.523M327.772 702.879L308.132 678.013M327.772 702.879L360.504 739.523M327.772 702.879L356.576 662.309M327.772 702.879L367.05 687.174M327.772 702.879L322.534 662.309M308.132 678.013L322.534 662.309M308.132 678.013L367.05 687.174M322.534 662.309L346.102 637.443M322.534 662.309H356.576M346.102 637.443L376.215 642.678M346.102 637.443L356.576 662.309M376.215 642.678L356.576 662.309M376.215 642.678L387.999 658.382M356.576 662.309L367.05 687.174M356.576 662.309L387.999 658.382M367.05 687.174L387.999 658.382M367.05 687.174L422.04 723.819M367.05 687.174L360.504 739.523M387.999 658.382L414.184 675.396M387.999 658.382L422.04 723.819M387.999 658.382L432.515 646.604M414.184 675.396L432.515 646.604M414.184 675.396L465.247 678.013M414.184 675.396L422.04 723.819M432.515 646.604L465.247 678.013M432.515 646.604L474.412 858.617M465.247 678.013L503.216 684.557M465.247 678.013L484.886 718.584M465.247 678.013L422.04 723.819M503.216 684.557L524.165 702.879M503.216 684.557L484.886 718.584M503.216 684.557L545.113 539.288M524.165 702.879V727.745M524.165 702.879L484.886 718.584M524.165 727.745L545.113 718.584M524.165 727.745L538.567 746.067M524.165 727.745L484.886 718.584M524.165 727.745L511.072 785.329M524.165 727.745L457.391 767.007M545.113 718.584L567.371 723.819M545.113 718.584L538.567 746.067M567.371 723.819L580.464 749.993M567.371 723.819L538.567 746.067M580.464 749.993L594.866 829.825M580.464 749.993L538.567 746.067M580.464 749.993L567.371 799.725M594.866 829.825L587.01 853.382L538.567 835.06M594.866 829.825L564.753 852.074M594.866 829.825L538.567 835.06M594.866 829.825L567.371 799.725M538.567 835.06L571.299 816.738M538.567 835.06V746.067M538.567 835.06L511.072 785.329M538.567 835.06L564.753 852.074M538.567 835.06L524.165 862.544M538.567 835.06L457.391 824.591M538.567 835.06L444.298 852.074M571.299 816.738L567.371 799.725M571.299 816.738L564.753 852.074M567.371 799.725L538.567 746.067M567.371 799.725L511.072 785.329M538.567 746.067L511.072 785.329M538.567 746.067L457.391 767.007M511.072 785.329L457.391 767.007M511.072 785.329L484.886 718.584M511.072 785.329L457.391 824.591M511.072 785.329L503.216 869.087M511.072 785.329L474.412 858.617M457.391 767.007L484.886 718.584M457.391 767.007L414.184 829.825M457.391 767.007L393.236 772.242M457.391 767.007L422.04 804.96M457.391 767.007L422.04 723.819M484.886 718.584L422.04 723.819M422.04 723.819L360.504 739.523M422.04 723.819L457.391 824.591M422.04 723.819L393.236 772.242M360.504 739.523L369.669 772.242M360.504 739.523L393.236 772.242M369.669 772.242H393.236M393.236 772.242L422.04 804.96M393.236 772.242L378.834 814.121M393.236 772.242L414.184 829.825M422.04 804.96L457.391 824.591M422.04 804.96L414.184 829.825M457.391 824.591L524.165 862.544M457.391 824.591L444.298 852.074M457.391 824.591L414.184 829.825M524.165 862.544L564.753 852.074M564.753 852.074L474.412 858.617M474.412 858.617L503.216 869.087M503.216 869.087L465.247 874.322L444.298 852.074M444.298 852.074L414.184 829.825M444.298 852.074L432.515 869.087M414.184 829.825L432.515 869.087M414.184 829.825L378.834 814.121M414.184 829.825H367.05M414.184 829.825L380.143 862.544M432.515 869.087L380.143 862.544M432.515 869.087L367.05 829.825M380.143 862.544L367.05 829.825M380.143 862.544L334.318 865.161M367.05 829.825L334.318 865.161M367.05 829.825H327.772M367.05 829.825L378.834 814.121M334.318 865.161L327.772 829.825M327.772 829.825L378.834 814.121M592.248 354.758L457.391 370.463M592.248 354.758L545.113 539.288M457.391 370.463L545.113 539.288M399.782 574.624L450.845 630.899L416.803 624.356L399.782 574.624Z" stroke="#1F72C7" stroke-width="2"/>
</svg>
